<?xml version="1.0" encoding="utf-8"?>
<svg xmlns="http://www.w3.org/2000/svg" width="52" height="52" viewBox="0 0 52 52" xml:space="preserve">
    <style type="text/css">
        .st0{fill:#EF3C79;}
        .st1{fill:#5B311A;}
        .st2{fill:#FFFFFF;}
        .st3{fill:url(#linear_gradient);}
    </style>
    <path class="st0" d="M40.6,23.1c-0.1-0.6-0.7-2.4-3-4.2c0,0,0,0,0,0c-0.7-0.5-1.4-1.2-2-1.7l-1-1.1c0,0,0,0,0,0
        l0,0l-0.7-0.8c-0.6-0.7-1.4-1.5-3.2-2.3c-2.3-1-6.7-1-9,0c-1.8,0.8-2.7,1.6-3.2,2.3L16.6,17c-0.5,0.5-1.1,1.1-1.7,1.6
        c-0.1,0.1-0.3,0.2-0.4,0.3c0,0,0,0,0,0c0,0,0,0,0,0c-2.2,1.8-2.7,3.5-2.9,4.1c0,0.1-0.1,0.4-0.1,0.7c0,0,0,0,0,0s0,0.6,0,1l0,0
        c0.1,1.2,0.7,2.7,2.4,3.4c1.5,0.6,1.6,0.7,1.5,2.1c-0.7,3-0.6,5.1-0.4,6.7c0.3,2.2,1.8,3.8,3.1,4.2c0.6,0.2,5.5,2.9,8.2,2.9
        c3.1,0,7.6-2.7,8.2-2.9c1.6-1.2,2.6-2.3,2.9-4.2c0.3-2.3,0.1-5.1-0.3-6.8c-0.3-1.2,0.8-1.8,1.2-1.9c1.6-0.9,2.2-2.3,2.3-3.5
        c0,0,0,0,0,0c0-0.3,0-0.7,0.1-0.8C40.7,23.5,40.7,23.3,40.6,23.1z"/>
    <path class="st0" d="M20.1,9.3c-1.1,1.1-3,3.1-2.9,4.9c0.1,3.7,3,4.1,3.8,4.1c0.1,0,0.2-0.1,0.2-0.2l0-8.3
            C21.2,9.8,21.1,8.3,20.1,9.3z"/>
    <path class="st0" d="M31.9,9.3c1.1,1.1,3,3.1,2.9,4.9c-0.1,3.7-3,4.1-3.8,4.1c-0.1,0-0.2-0.1-0.2-0.2l0-8.3
            C30.8,9.8,30.9,8.3,31.9,9.3z"/>
    <ellipse class="st1" cx="36.5" cy="23.9" rx="3.3" ry="3.6"/>
    <ellipse class="st1" cx="15.5" cy="23.9" rx="3.3" ry="3.6"/>
    <circle class="st2" cx="14.4" cy="22.9" r="1.1"/>
    <circle class="st2" cx="37.6" cy="22.9" r="1.1"/>
    <path class="st2" d="M32.8,26.1c-0.4-3.6-1.9-6.6-6.6-6.6c-4.5,0-6.3,3.2-6.6,6.6c-0.3,3.4-3.4,8.2-3.4,10.1
        c0,1.4,0.7,2.4,1.6,3.2c0.2,0.2,0.5,0.4,0.8,0.5c0.6,0.3,1.2,0.6,1.8,0.7c0.9,0.3,1.8,0.5,2.9,0.6c1.1,0.1,2-0.7,2-1.8v-7.6
        c0-1.7-3.4-2.8-4.7-3.1c-0.4-0.1-0.7-0.4-0.6-0.8c0-0.5,0.5-0.8,0.9-0.7c0.5,0.1,3.7,0.8,5.2,2.6c1.5-1.8,4.7-2.5,5.2-2.6
        c0.4-0.1,0.9,0.2,0.9,0.7c0,0.4-0.3,0.7-0.6,0.8c-1.3,0.3-4.7,1.4-4.7,3.1v7.6c0,1.1,0.9,1.9,2,1.8c0.6-0.1,1.3-0.2,1.8-0.3
        c0.6-0.1,1.4-0.4,2.3-0.7c0.8-0.4,1.5-0.8,1.9-1.3c0.7-0.7,1.1-1.6,1.1-2.7C36.1,34.3,33.1,29.6,32.8,26.1z"/>

    <g>
        <linearGradient id="linear_gradient" gradientUnits="userSpaceOnUse" x1="0" y1="26" x2="52" y2="26">
            <stop  offset="0" style="stop-color:#FFFFFF"/>
            <stop  offset="1" style="stop-color:#EF3C79"/>
        </linearGradient>
        <animateTransform attributeType="XML" attributeName="transform" type="rotate" from="0 26 26" to="360 26 26" dur="1s" repeatCount="indefinite"/>
        <path class="st3" d="M26,2.6c12.9,0,23.4,10.5,23.4,23.4S38.9,49.4,26,49.4S2.6,38.9,2.6,26S13.1,2.6,26,2.6 M26,0
            C11.6,0,0,11.6,0,26s11.6,26,26,26s26-11.6,26-26S40.4,0,26,0L26,0z"/>
    </g>
</svg>
